<?xml version="1.0" encoding="UTF-8" standalone="no"?>
<!-- Created with Inkscape (http://www.inkscape.org/) -->
<svg
   xmlns:dc="http://purl.org/dc/elements/1.1/"
   xmlns:cc="http://creativecommons.org/ns#"
   xmlns:rdf="http://www.w3.org/1999/02/22-rdf-syntax-ns#"
   xmlns:svg="http://www.w3.org/2000/svg"
   xmlns="http://www.w3.org/2000/svg"
   xmlns:xlink="http://www.w3.org/1999/xlink"
   xmlns:sodipodi="http://sodipodi.sourceforge.net/DTD/sodipodi-0.dtd"
   xmlns:inkscape="http://www.inkscape.org/namespaces/inkscape"
   width="744.09448819"
   height="1052.3622047"
   id="svg2408"
   sodipodi:version="0.32"
   inkscape:version="0.46"
   sodipodi:docname="Logo.svg"
   inkscape:output_extension="org.inkscape.output.svg.inkscape">
  <defs
     id="defs2410">
    <linearGradient
       id="linearGradient4341">
      <stop
         style="stop-color:#798550;stop-opacity:1;"
         offset="0"
         id="stop4343" />
      <stop
         style="stop-color:#5e673e;stop-opacity:1;"
         offset="1"
         id="stop4345" />
    </linearGradient>
    <linearGradient
       id="linearGradient4335">
      <stop
         id="stop4337"
         offset="0"
         style="stop-color:#502d16;stop-opacity:1;" />
      <stop
         id="stop4339"
         offset="1"
         style="stop-color:#502d16;stop-opacity:0;" />
    </linearGradient>
    <linearGradient
       id="linearGradient4325">
      <stop
         style="stop-color:#502d16;stop-opacity:1;"
         offset="0"
         id="stop4327" />
      <stop
         style="stop-color:#502d16;stop-opacity:0;"
         offset="1"
         id="stop4329" />
    </linearGradient>
    <inkscape:perspective
       sodipodi:type="inkscape:persp3d"
       inkscape:vp_x="0 : 526.18109 : 1"
       inkscape:vp_y="0 : 1000 : 0"
       inkscape:vp_z="744.09448 : 526.18109 : 1"
       inkscape:persp3d-origin="372.04724 : 350.78739 : 1"
       id="perspective2416" />
    <filter
       inkscape:collect="always"
       id="filter3377"
       x="-0.044706631"
       width="1.0894133"
       y="-0.1044234"
       height="1.2088468">
      <feGaussianBlur
         inkscape:collect="always"
         stdDeviation="9.4375921"
         id="feGaussianBlur3379" />
    </filter>
    <filter
       inkscape:collect="always"
       id="filter3772"
       x="-0.067839964"
       width="1.1356799"
       y="-0.2259329"
       height="1.4518658">
      <feGaussianBlur
         inkscape:collect="always"
         stdDeviation="11.66367"
         id="feGaussianBlur3774" />
    </filter>
    <inkscape:perspective
       id="perspective3783"
       inkscape:persp3d-origin="372.04724 : 350.78739 : 1"
       inkscape:vp_z="744.09448 : 526.18109 : 1"
       inkscape:vp_y="0 : 1000 : 0"
       inkscape:vp_x="0 : 526.18109 : 1"
       sodipodi:type="inkscape:persp3d" />
    <filter
       inkscape:collect="always"
       id="filter3925"
       x="-0.059608841"
       width="1.1192177"
       y="-0.1392312"
       height="1.2784624">
      <feGaussianBlur
         inkscape:collect="always"
         stdDeviation="12.583456"
         id="feGaussianBlur3927" />
    </filter>
    <filter
       inkscape:collect="always"
       id="filter4307">
      <feGaussianBlur
         inkscape:collect="always"
         stdDeviation="4.6654681"
         id="feGaussianBlur4309" />
    </filter>
    <linearGradient
       inkscape:collect="always"
       xlink:href="#linearGradient4341"
       id="linearGradient4333"
       x1="434.57013"
       y1="498.23254"
       x2="145.75436"
       y2="98.9468"
       gradientUnits="userSpaceOnUse" />
    <linearGradient
       inkscape:collect="always"
       xlink:href="#linearGradient4341"
       id="linearGradient4347"
       x1="294.20325"
       y1="201.51595"
       x2="379.26523"
       y2="467.94455"
       gradientUnits="userSpaceOnUse" />
    <linearGradient
       inkscape:collect="always"
       xlink:href="#linearGradient4341"
       id="linearGradient3222"
       gradientUnits="userSpaceOnUse"
       x1="294.20325"
       y1="201.51595"
       x2="379.26523"
       y2="467.94455" />
    <linearGradient
       inkscape:collect="always"
       xlink:href="#linearGradient4341"
       id="linearGradient3226"
       gradientUnits="userSpaceOnUse"
       x1="294.20325"
       y1="201.51595"
       x2="379.26523"
       y2="467.94455" />
  </defs>
  <sodipodi:namedview
     id="base"
     pagecolor="#ffffff"
     bordercolor="#666666"
     borderopacity="1.0"
     gridtolerance="10000"
     guidetolerance="10"
     objecttolerance="10"
     inkscape:pageopacity="0.0"
     inkscape:pageshadow="2"
     inkscape:zoom="0.7"
     inkscape:cx="317.6188"
     inkscape:cy="701.19589"
     inkscape:document-units="px"
     inkscape:current-layer="layer3"
     showgrid="false"
     showguides="true"
     inkscape:guide-bbox="true"
     inkscape:window-width="967"
     inkscape:window-height="669"
     inkscape:window-x="110"
     inkscape:window-y="805" />
  <metadata
     id="metadata2413">
    <rdf:RDF>
      <cc:Work
         rdf:about="">
        <dc:format>image/svg+xml</dc:format>
        <dc:type
           rdf:resource="http://purl.org/dc/dcmitype/StillImage" />
      </cc:Work>
    </rdf:RDF>
  </metadata>
  <g
     inkscape:groupmode="layer"
     id="layer3"
     inkscape:label="Background Pic"
     style="display:inline">
    <image
       y="125.50505"
       x="-173.4286"
       id="image3785"
       height="768"
       width="1024"
       sodipodi:absref="E:\Documents and Settings\Zain\My Documents\My Documents\School\2009_1 Spring\EE360P Concurrent and Distributed Systems\Programs\HiveWars\hivewars\SuperNova.jpg"
       xlink:href="hivewars\SuperNova.jpg"
       inkscape:export-filename="E:\Documents and Settings\Zain\My Documents\My Documents\School\2009_1 Spring\EE360P Concurrent and Distributed Systems\Programs\HiveWars\FrontImage02.png"
       inkscape:export-xdpi="90"
       inkscape:export-ydpi="90" />
    <use
       x="0"
       y="0"
       xlink:href="#image3785"
       id="use3189"
       transform="translate(-1302.8571,-11.428571)"
       width="744.09448"
       height="1052.3622" />
  </g>
  <g
     inkscape:label="TextBackground"
     inkscape:groupmode="layer"
     id="layer1"
     style="display:inline">
    <path
       style="font-size:12px;font-style:normal;font-weight:normal;writing-mode:lr-tb;opacity:0.92707962;fill:#28170b;fill-opacity:1;stroke:none;stroke-width:1px;stroke-linecap:butt;stroke-linejoin:miter;stroke-opacity:1;filter:url(#filter3925);font-family:Bitstream Vera Sans"
       d="M 176.15287,198.84375 C 169.92991,200.22587 163.50882,201.8618 157.30912,199.46875 C 119.16633,194.81469 82.441506,232.14 89.121616,270.3125 C 88.490876,279.03903 83.502406,287.07944 83.902866,296.09375 C 82.917266,311.33045 91.935156,325.45047 89.121616,340.6875 C 88.016376,350.26452 82.323216,358.89542 83.340366,368.875 C 83.629986,396.8944 107.26046,422.56485 135.61917,423.57 C 151.06779,424.63665 167.1077,419.58314 178.46537,409.1875 C 187.45773,408.43389 196.14848,410.32783 204.87162,411.78125 C 214.23127,412.46259 223.47424,409.65549 232.09037,406.71875 C 242.0223,407.95324 251.4868,403.56581 260.80912,401.53125 C 281.75338,408.31554 305.81797,404.05959 323.52787,391.21875 C 340.25014,405.06362 364.81494,406.03315 384.02787,397.375 C 394.05394,399.80507 404.73492,399.7007 414.74662,397.28125 C 429.76872,405.83389 448.28509,407.67877 464.77787,403.40625 C 478.27161,408.44817 493.61946,408.74046 507.15287,403.53125 C 514.8727,403.1754 522.31731,406.57941 530.18412,405.6875 C 559.49257,405.68161 588.13556,385.86588 595.52787,357.0625 C 599.25534,344.78559 597.96054,331.69724 596.15287,319.3125 C 599.89271,297.06339 590.9767,273.09175 572.49662,259.78125 C 558.12481,248.70792 539.06222,244.32912 521.15287,247.28125 C 507.7492,247.14964 495.41234,254.06093 482.05912,253.40625 C 480.54966,251.01859 479.7994,245.9938 477.90287,242.875 C 467.17348,221.23367 442.97217,207.03997 418.87162,207.71875 C 402.57865,208.94945 388.0602,218.82571 378.27787,231.40625 C 351.65505,217.66998 315.54988,228.79258 300.77787,254.53125 C 286.74678,250.48308 271.88252,250.9709 257.46537,252.25 C 254.55298,243.73209 247.23205,237.31058 240.30912,231.875 C 235.0295,227.98274 228.83868,225.47935 225.40287,219.5625 C 213.10608,206.05819 194.55049,198.33753 176.15287,198.84375 z"
       id="path3875"
       inkscape:export-filename="E:\Documents and Settings\Zain\My Documents\My Documents\School\2009_1 Spring\EE360P Concurrent and Distributed Systems\Programs\HiveWars\Logo02.png"
       inkscape:export-xdpi="90"
       inkscape:export-ydpi="90" />
    <path
       style="font-size:12px;font-style:normal;font-weight:normal;writing-mode:lr-tb;fill:#28170b;fill-opacity:1;stroke:none;stroke-width:1px;stroke-linecap:butt;stroke-linejoin:miter;stroke-opacity:1;filter:url(#filter3377);font-family:Bitstream Vera Sans"
       d="M 174.38895,194.8125 C 168.81634,195.47548 163.41621,198.38103 157.8577,195.9375 C 127.69453,190.41777 96.914313,213.63551 91.295203,243.1875 C 89.240783,251.01947 91.017153,259.11023 90.951453,266.9375 C 86.138983,277.61105 84.510173,289.74046 86.888953,301.3125 C 88.114633,309.14575 92.480763,316.19229 91.124943,324.31235 C 91.800683,332.02076 90.500833,339.70011 87.201453,346.625 C 80.778783,367.95342 90.732183,392.05667 109.4827,403.6875 C 129.3443,416.65015 158.0466,413.50149 174.88895,397.09375 C 181.97485,397.84208 189.29637,396.06951 196.07645,398.84375 C 206.98029,401.1023 218.66661,399.27743 228.45145,394.4375 C 238.61667,396.19427 248.66906,392.09622 257.9202,389.0625 C 279.14623,396.71744 304.13416,392.044 321.57645,378.0625 C 337.21066,392.74558 362.02431,394.75242 380.8577,385 C 391.34415,387.86431 402.64116,387.82799 413.13895,385.03125 C 427.68851,393.36521 445.88646,396.3501 462.07645,391 C 471.18656,393.7091 480.72701,396.81296 490.47179,394.91519 C 498.03012,394.57653 504.97867,389.16055 512.46631,392.21158 C 537.12948,397.26338 564.6322,388.80168 579.63895,368.09375 C 591.09339,352.78936 594.7112,332.26054 589.6702,313.84375 C 590.33686,305.56056 591.71991,297.1311 589.5452,288.84375 C 583.85301,258.64594 551.53722,237.77352 521.6077,243.34375 C 514.35473,243.15526 507.10232,244.35891 500.1077,246.5625 C 493.88024,247.44449 487.88998,250.57868 481.45145,249.21875 C 479.04705,249.23171 475.45353,251.11354 475.81263,247.24617 C 472.22203,230.60338 459.80412,217.10412 444.53785,210.12316 C 429.29429,201.60234 409.08397,201.07404 394.76395,211.6875 C 387.91723,216.1895 381.91229,221.9042 377.32645,228.65625 C 351.51384,212.8091 313.763,224.40436 300.6077,251.375 C 286.89641,246.87993 271.89719,246.37965 257.63895,248.40625 C 255.28325,247.80598 251.8145,249.25022 251.88895,245.53125 C 246.31384,234.45984 236.37369,226.09296 225.38895,220.8125 C 214.49009,204.18068 194.19121,194.37342 174.38895,194.8125 z"
       id="path3215"
       inkscape:export-filename="E:\Documents and Settings\Zain\My Documents\My Documents\School\2009_1 Spring\EE360P Concurrent and Distributed Systems\Programs\HiveWars\Logo02.png"
       inkscape:export-xdpi="90"
       inkscape:export-ydpi="90" />
    <text
       xml:space="preserve"
       style="font-size:12px;font-style:normal;font-weight:normal;writing-mode:tb-rl;fill:#000000;fill-opacity:1;stroke:none;stroke-width:1px;stroke-linecap:butt;stroke-linejoin:miter;stroke-opacity:1;font-family:Bitstream Vera Sans"
       x="415.71429"
       y="463.79074"
       id="text2424"><tspan
         sodipodi:role="line"
         id="tspan2426"
         x="463.79074"
         y="415.71429" /></text>
    <text
       xml:space="preserve"
       style="font-size:12px;font-style:normal;font-weight:normal;writing-mode:tb-rl;fill:#000000;fill-opacity:1;stroke:none;stroke-width:1px;stroke-linecap:butt;stroke-linejoin:miter;stroke-opacity:1;font-family:Bitstream Vera Sans"
       x="338.95227"
       y="405.21933"
       id="text2437"
       inkscape:export-filename="E:\Documents and Settings\Zain\My Documents\My Documents\School\2009_1 Spring\EE360P Concurrent and Distributed Systems\Programs\HiveWars\Logo02.png"
       inkscape:export-xdpi="90"
       inkscape:export-ydpi="90"><tspan
         sodipodi:role="line"
         id="tspan2439"
         x="538.45728"
         y="205.71429">```</tspan></text>
    <path
       style="font-size:12px;font-style:normal;font-weight:normal;writing-mode:lr-tb;fill:url(#linearGradient3226);fill-opacity:1;stroke:none;stroke-width:21.25984192;stroke-linecap:butt;stroke-linejoin:miter;stroke-miterlimit:4;stroke-opacity:0.04046242;font-family:Bitstream Vera Sans"
       d="M 168.84375,207.84375 C 166.19177,207.75647 166.06606,211.63693 163.125,210.1875 C 153.69929,208.78915 143.67882,207.01868 134.625,211.15625 C 113.93989,218.30897 99.703193,241.1569 104.28125,262.9375 C 105.38917,273.36657 97.357766,282.27104 99.15625,292.8125 C 99.671698,303.48985 105.93919,313.02468 104.65316,323.90585 C 105.20536,333.22411 103.77569,342.52921 99.75,350.9375 C 93.829566,372.65274 111.08946,397.23527 133.83925,397.90731 C 147.2899,399.32495 160.56356,393.2459 169.78125,383.90625 C 175.93058,382.80057 182.31506,384.76542 188.4375,384 C 199.50412,385.79857 212.10778,389.07014 222.1875,382.3125 C 228.52911,379.04545 235.68713,383.4257 242.125,380.21875 C 249.24242,377.96372 256.41268,372.89583 263.9291,376.93506 C 283.34765,383.75235 304.79198,375.95267 319.625,362.9375 C 327.52305,361.47866 331.14167,370.86161 337.78125,373.375 C 350.21504,380.27233 365.52984,378.21316 377.625,371.875 C 386.14074,370.94107 394.38527,375.89553 402.9375,373.375 C 409.47469,371.98519 417.02566,369.74655 422.49469,374.93111 C 434.83998,381.83744 449.86664,381.03272 463.125,377.6875 C 473.9413,379.26134 485.24635,385.2195 496.03125,379.96875 C 502.16507,377.34085 509.09107,376.56117 515.3125,379.3125 C 538.84684,384.16328 566.23063,372.76284 574.84375,349.4375 C 579.3745,338.14756 579.38631,325.31914 576,313.71875 C 578.83528,301.3601 577.21119,287.86268 569.65625,277.46875 C 563.74355,266.85427 553.2214,258.94406 540.96875,257.8125 C 529.11293,256.3988 517.06267,258.33022 505.21875,258.59375 C 497.11913,260.67413 489.17895,263.66566 480.69311,263.04329 C 474.5655,264.20247 465.24379,263.53442 464.25,255.8125 C 461.81858,245.87174 458.59465,235.15659 449.59375,229.25 C 437.53369,218.82705 418.88499,212.32373 404.21875,221.375 C 394.92358,226.43194 388.83549,235.47357 382.84375,243.6875 C 375.96635,247.13409 371.21619,239.20743 365.21875,237.65625 C 343.8072,229.51747 317.8662,241.78854 309.34375,262.5 C 305.20816,267.70449 298.14533,265.12433 293.1875,262.9375 C 279.17961,258.68354 264.42714,262.02446 250.15625,261.4375 C 243.84913,260.92039 241.12007,254.74007 238.9375,249.65625 C 234.20279,241.09038 225.67597,235.75143 217.1875,231.5625 C 212.58775,226.57308 209.28549,220.35888 203.1875,216.96875 C 193.29804,209.77557 180.9602,207.35872 168.84375,207.84375 z"
       id="path4318"
       inkscape:export-filename="E:\Documents and Settings\Zain\My Documents\My Documents\School\2009_1 Spring\EE360P Concurrent and Distributed Systems\Programs\HiveWars\Logo02.png"
       inkscape:export-xdpi="90"
       inkscape:export-ydpi="90" />
    <path
       id="path3228"
       d="M 183.09375,204.75 C 182.01749,204.77029 180.98365,204.84159 179.96875,204.96875 C 177.20702,205.31829 174.48586,205.93579 171.84375,206.8125 C 171.2539,207.00773 170.68257,207.36782 170.09375,207.59375 C 160.84316,204.68755 150.51148,204.28523 139.78125,207.28125 L 139.8125,207.40625 C 121.40583,212.90835 106.31557,231.05158 102.8125,243.40625 C 99.786167,254.07956 99.78588,262.10469 101.21875,269.90625 C 101.17227,271.34741 101.03955,272.85855 101.03125,274.25 C 100.13263,276.06509 99.3978,278.0308 98.6875,280 L 98.5,279.9375 C 98.292977,280.51499 98.18076,281.10585 98,281.6875 C 97.953207,281.83398 97.9204,281.97804 97.875,282.125 C 97.114877,284.66472 96.56339,287.22313 96.25,289.78125 C 96.245387,289.8236 96.2232,289.8639 96.21875,289.90625 C 94.820147,301.57092 97.58884,312.94468 100.9375,319.75 C 101.08376,320.04724 101.22877,320.24429 101.375,320.53125 C 101.224,324.70342 100.97028,331.90804 101,343.78125 C 99.815447,346.15338 98.76475,348.58872 97.90625,351.125 C 95.029467,359.62392 93.89262,370.63089 98.09375,382.375 C 101.04302,390.61958 107.13609,398.10746 113.96875,403.53125 L 113.84375,403.6875 C 114.1639,403.94568 114.51945,404.09629 114.84375,404.34375 C 115.68574,404.98103 116.54811,405.43369 117.40625,406 C 119.13094,407.13886 120.84814,408.25654 122.65625,409.125 C 122.72851,409.1588 122.80278,409.2168 122.875,409.25 L 122.90625,409.21875 C 141.34772,417.94048 163.3774,413.15916 175.96875,402.03125 C 177.08565,401.04417 178.12717,399.87023 179.1875,398.75 C 183.85817,399.54188 189.02202,399.63899 194.5625,398.78125 C 203.53633,401.84765 214.1762,402.87895 223.34375,400.34375 C 227.08049,399.31039 230.3439,397.86994 233.34375,396.25 C 234.24123,396.37618 235.12843,396.5747 236.03125,396.65625 C 244.29694,397.40288 254.07851,395.08009 263,390.40625 C 276.2557,395.84613 289.90868,395.6012 301.0625,392.71875 C 310.77108,390.20979 319.83299,385.87464 327.6875,378.6875 C 333.10087,383.88295 339.61296,388.27599 346.03125,390.5625 C 347.92821,391.23994 349.87051,391.78295 351.84375,392.1875 C 362.25777,394.32069 376.03187,392.2336 385.15625,387.25 C 385.53772,387.04165 385.79017,386.80478 386.15625,386.59375 C 397.55796,390.2336 409.7153,389.66321 419.6875,386.71875 C 423.71077,389.23363 428.07756,391.33504 432.875,392.6875 C 447.4462,397.44496 459.03865,395.85376 467.75,392.875 C 468.75509,392.95873 469.72167,393.07557 470.8125,393.09375 C 475.90696,395.41931 481.08223,396.88522 485.875,397.1875 C 494.72697,397.74579 503.52208,396.29431 511.5,392.53125 C 518.91959,394.67236 524.70658,394.7767 526.6875,395.09375 C 528.62174,395.39352 530.57421,395.56057 532.53125,395.59375 C 569.6602,396.40329 600.88289,363.89505 592.4375,324.59375 C 592.3407,324.10645 592.29918,323.60646 592.1875,323.125 C 592.17772,323.08279 592.16615,323.04216 592.15625,323 C 591.87564,321.80509 591.48895,320.65573 591.125,319.5 C 596.54876,297.4958 587.58457,272.40561 566.0625,260.75 C 557.76017,255.59578 546.81064,251.40619 532.59375,252.78125 C 530.14392,253.01006 527.71831,253.44917 525.34375,254.09375 C 526.79676,253.69406 520.54788,251.99146 510.65625,255.84375 C 508.2616,256.04392 505.91364,256.4048 503.65625,256.90625 C 501.03899,257.48764 498.38677,258.47315 495.71875,259.65625 C 489.87992,258.9409 484.47829,259.25318 479.40625,260.28125 C 479.32312,260.24009 479.12408,260.14233 479.03125,260.09375 C 478.60427,257.35782 477.97578,254.46443 476.9375,251.03125 C 475.17159,245.19203 472.20407,237.40557 463.53125,229.40625 C 461.34225,227.38723 458.6757,225.54948 455.71875,223.9375 C 447.96764,218.51327 434.57211,212.23197 421.65625,213.8125 C 421.25957,213.86945 420.86369,213.93196 420.46875,214 C 405.14052,216.30972 390.55011,229.13965 384.53125,240.34375 C 383.62724,239.69001 382.77074,238.98289 381.8125,238.40625 C 358.95316,224.65499 332.38846,233.21893 318.90625,247.09375 C 314.84177,251.2766 311.34697,256.34146 308.71875,262.25 C 301.92129,259.88804 295.49506,258.74835 290.15625,257.875 C 288.01731,257.52437 285.85486,257.33633 283.6875,257.3125 C 281.0525,257.28331 279.57296,257.30525 279.03125,257.28125 C 276.72619,257.17875 274.41662,257.26235 272.125,257.53125 C 269.57241,257.83119 267.07213,258.24373 264.65625,258.78125 C 263.87597,258.64323 263.21639,258.38545 262.40625,258.28125 C 260.46619,258.03171 258.46449,257.97715 256.4375,258.03125 C 255.08662,254.72661 253.52155,251.60637 251.6875,248.875 C 246.44463,241.06702 238.41875,234.21098 228.71875,230.28125 C 228.60195,230.05852 228.52719,229.84938 228.40625,229.625 C 221.55203,216.90881 202.05192,206.01018 186.40625,204.84375 C 185.2887,204.76044 184.17001,204.72971 183.09375,204.75 z M 175.34375,215.8125 C 175.94004,215.77629 176.74447,215.83586 177.875,216 C 190.04275,215.31131 202.44097,219.44819 211.59375,227.375 C 216.98506,230.82397 218.54863,238.00196 224.375,240.65625 C 233.99505,244.67893 242.04248,252.16242 245.75,261.96875 C 248.36333,268.03134 254.82554,270.1012 261,269.6875 C 274.38657,268.83448 288.12491,267.25543 301.125,271.625 C 306.56022,274.77011 313.89856,274.44532 317.625,268.8125 C 326.31822,247.29195 354.95851,236.18707 375.46875,247.84375 C 379.33609,251.81788 386.34748,254.61601 391.15625,250.5 C 398.09805,238.97799 408.08489,227.48319 422.125,225.21875 C 435.07569,223.79511 447.71446,230.55022 457,239.125 C 464.70188,245.07521 465.98164,255.25345 468.84375,264 C 471.39774,272.83429 482.10658,271.64355 489.28125,270.78125 C 497.91754,271.99227 505.5454,267.13631 513.96875,266.21875 C 526.79318,266.76066 540.00096,263.20835 552.6875,267.125 C 564.48943,269.78441 571.92166,280.00474 577.15625,290.21875 C 582.36942,299.23919 581.81811,309.93462 579.9375,319.78125 C 583.65994,332.23927 583.46166,346.29796 577.4375,358.09375 C 567.61083,379.29597 541.49296,388.08038 519.59375,382.90625 C 512.76612,379.52945 505.60945,382.76053 498.875,384.90625 C 488.48947,388.77907 478.53847,382.29523 468.375,381.59375 C 454.98443,385.41749 439.55609,385.72651 427.46875,377.96875 C 420.94263,372.90705 413.12168,377.42741 405.875,377.6875 C 397.56242,379.56851 389.77131,373.65457 381.625,376.34375 C 370.14175,382.79366 355.21773,383.91178 343.625,376.96875 C 337.27643,373.83406 332.90186,364.39963 324.625,367.15625 C 314.21512,375.96333 301.48698,382.89976 287.46875,383.28125 C 279.15907,384.37831 271.42858,380.98374 263.6875,379.15625 C 255.1876,379.9284 247.62227,386.3332 238.65625,385.5 C 233.90636,384.09196 229.11787,385.21066 224.9375,387.78125 C 214.72731,393.2432 203.3198,388.75454 192.6875,387.8125 C 186.53973,389.12121 180.07998,386.08365 174.125,388.3125 C 164.91745,398.70958 150.25792,404.04665 136.4375,401.40625 C 115.65589,398.78277 101.73339,375.21752 108.25,355.5625 C 114.16723,344.57493 112.44621,331.76204 112.46875,319.65625 C 108.94489,309.49451 105.06612,298.21626 108.1875,287.3125 C 111.18278,280.62682 113.22843,273.51749 111.96875,266.0625 C 108.45261,244.01604 124.92506,222.39219 146.1875,217.59375 C 154.88604,214.62418 163.60569,218.52123 172.34375,218.25 C 174.29826,217.70367 172.75981,215.96942 175.34375,215.8125 z"
       style="font-size:12px;font-style:normal;font-weight:normal;writing-mode:lr-tb;opacity:1;fill:#0d100a;fill-opacity:1;stroke:#838506;stroke-width:10.62992096;stroke-linecap:butt;stroke-linejoin:miter;stroke-miterlimit:4;stroke-dasharray:none;stroke-opacity:0.04046242;font-family:Bitstream Vera Sans"
       inkscape:export-filename="E:\Documents and Settings\Zain\My Documents\My Documents\School\2009_1 Spring\EE360P Concurrent and Distributed Systems\Programs\HiveWars\Logo02.png"
       inkscape:export-xdpi="90"
       inkscape:export-ydpi="90" />
    <path
       style="font-size:12px;font-style:normal;font-weight:normal;writing-mode:lr-tb;opacity:1;fill:#3b472c;fill-opacity:1;stroke:#838506;stroke-width:10.62992096;stroke-linecap:butt;stroke-linejoin:miter;stroke-miterlimit:4;stroke-dasharray:none;stroke-opacity:0.04046242;font-family:Bitstream Vera Sans"
       d="M 175.09375,196.75 C 174.01749,196.77029 172.98365,196.84159 171.96875,196.96875 C 169.20702,197.31829 166.48586,197.93579 163.84375,198.8125 C 163.2539,199.00773 162.68257,199.36782 162.09375,199.59375 C 152.84316,196.68755 142.51148,196.28523 131.78125,199.28125 L 131.8125,199.40625 C 113.40583,204.90835 98.31557,223.05158 94.8125,235.40625 C 91.786167,246.07956 91.78588,254.10469 93.21875,261.90625 C 93.172267,263.34741 93.03955,264.85855 93.03125,266.25 C 92.132627,268.06509 91.3978,270.0308 90.6875,272 L 90.5,271.9375 C 90.292977,272.51499 90.18076,273.10585 90,273.6875 C 89.953207,273.83398 89.9204,273.97804 89.875,274.125 C 89.114877,276.66472 88.56339,279.22313 88.25,281.78125 C 88.245387,281.8236 88.2232,281.8639 88.21875,281.90625 C 86.820147,293.57092 89.58884,304.94468 92.9375,311.75 C 93.083757,312.04724 93.22877,312.24429 93.375,312.53125 C 93.223997,316.70342 92.97028,323.90804 93,335.78125 C 91.815447,338.15338 90.76475,340.58872 89.90625,343.125 C 87.029467,351.62392 85.89262,362.63089 90.09375,374.375 C 93.043017,382.61958 99.13609,390.10746 105.96875,395.53125 L 105.84375,395.6875 C 106.1639,395.94568 106.51945,396.09629 106.84375,396.34375 C 107.68574,396.98103 108.54811,397.43369 109.40625,398 C 111.13094,399.13886 112.84814,400.25654 114.65625,401.125 C 114.72851,401.1588 114.80278,401.2168 114.875,401.25 L 114.90625,401.21875 C 133.34772,409.94048 155.3774,405.15916 167.96875,394.03125 C 169.08565,393.04417 170.12717,391.87023 171.1875,390.75 C 175.85817,391.54188 181.02202,391.63899 186.5625,390.78125 C 195.53633,393.84765 206.1762,394.87895 215.34375,392.34375 C 219.08049,391.31039 222.3439,389.86994 225.34375,388.25 C 226.24123,388.37618 227.12843,388.5747 228.03125,388.65625 C 236.29694,389.40288 246.07851,387.08009 255,382.40625 C 268.2557,387.84613 281.90868,387.6012 293.0625,384.71875 C 302.77108,382.20979 311.83299,377.87464 319.6875,370.6875 C 325.10087,375.88295 331.61296,380.27599 338.03125,382.5625 C 339.92821,383.23994 341.87051,383.78295 343.84375,384.1875 C 354.25777,386.32069 368.03187,384.2336 377.15625,379.25 C 377.53772,379.04165 377.79017,378.80478 378.15625,378.59375 C 389.55796,382.2336 401.7153,381.66321 411.6875,378.71875 C 415.71077,381.23363 420.07756,383.33504 424.875,384.6875 C 439.4462,389.44496 451.03865,387.85376 459.75,384.875 C 460.75509,384.95873 461.72167,385.07557 462.8125,385.09375 C 467.90696,387.41931 473.08223,388.88522 477.875,389.1875 C 486.72697,389.74579 495.52208,388.29431 503.5,384.53125 C 510.91959,386.67236 516.70658,386.7767 518.6875,387.09375 C 520.62174,387.39352 522.57421,387.56057 524.53125,387.59375 C 561.6602,388.40329 592.88289,355.89505 584.4375,316.59375 C 584.3407,316.10645 584.29918,315.60646 584.1875,315.125 C 584.17772,315.08279 584.16615,315.04216 584.15625,315 C 583.87564,313.80509 583.48895,312.65573 583.125,311.5 C 588.54876,289.4958 579.58457,264.40561 558.0625,252.75 C 549.76017,247.59578 538.81064,243.40619 524.59375,244.78125 C 522.14392,245.01006 519.71831,245.44917 517.34375,246.09375 C 518.79676,245.69406 512.54788,243.99146 502.65625,247.84375 C 500.2616,248.04392 497.91364,248.4048 495.65625,248.90625 C 493.03899,249.48764 490.38677,250.47315 487.71875,251.65625 C 481.87992,250.9409 476.47829,251.25318 471.40625,252.28125 C 471.32312,252.24009 471.12408,252.14233 471.03125,252.09375 C 470.60427,249.35782 469.97578,246.46443 468.9375,243.03125 C 467.17159,237.19203 464.20407,229.40557 455.53125,221.40625 C 453.34225,219.38723 450.6757,217.54948 447.71875,215.9375 C 439.96764,210.51327 426.57211,204.23197 413.65625,205.8125 C 413.25957,205.86945 412.86369,205.93196 412.46875,206 C 397.14052,208.30972 382.55011,221.13965 376.53125,232.34375 C 375.62724,231.69001 374.77074,230.98289 373.8125,230.40625 C 350.95316,216.65499 324.38846,225.21893 310.90625,239.09375 C 306.84177,243.2766 303.34697,248.34146 300.71875,254.25 C 293.92129,251.88804 287.49506,250.74835 282.15625,249.875 C 280.01731,249.52437 277.85486,249.33633 275.6875,249.3125 C 273.0525,249.28331 271.57296,249.30525 271.03125,249.28125 C 268.72619,249.17875 266.41662,249.26235 264.125,249.53125 C 261.57241,249.83119 259.07213,250.24373 256.65625,250.78125 C 255.87597,250.64323 255.21639,250.38545 254.40625,250.28125 C 252.46619,250.03171 250.46449,249.97715 248.4375,250.03125 C 247.08662,246.72661 245.52155,243.60637 243.6875,240.875 C 238.44463,233.06702 230.41875,226.21098 220.71875,222.28125 C 220.60195,222.05852 220.52719,221.84938 220.40625,221.625 C 213.55203,208.90881 194.05192,198.01018 178.40625,196.84375 C 177.2887,196.76044 176.17001,196.72971 175.09375,196.75 z M 167.34375,207.8125 C 167.94004,207.77629 168.74447,207.83586 169.875,208 C 182.04275,207.31131 194.44097,211.44819 203.59375,219.375 C 208.98506,222.82397 210.54863,230.00196 216.375,232.65625 C 225.99505,236.67893 234.04248,244.16242 237.75,253.96875 C 240.36333,260.03134 246.82554,262.1012 253,261.6875 C 266.38657,260.83448 280.12491,259.25543 293.125,263.625 C 298.56022,266.77011 305.89856,266.44532 309.625,260.8125 C 318.31822,239.29195 346.95851,228.18707 367.46875,239.84375 C 371.33609,243.81788 378.34748,246.61601 383.15625,242.5 C 390.09805,230.97799 400.08489,219.48319 414.125,217.21875 C 427.07569,215.79511 439.71446,222.55022 449,231.125 C 456.70188,237.07521 457.98164,247.25345 460.84375,256 C 463.39774,264.83429 474.10658,263.64355 481.28125,262.78125 C 489.91754,263.99227 497.5454,259.13631 505.96875,258.21875 C 518.79318,258.76066 532.00096,255.20835 544.6875,259.125 C 556.48943,261.78441 563.92166,272.00474 569.15625,282.21875 C 574.36942,291.23919 573.81811,301.93462 571.9375,311.78125 C 575.65994,324.23927 575.46166,338.29796 569.4375,350.09375 C 559.61083,371.29597 533.49296,380.08038 511.59375,374.90625 C 504.76612,371.52945 497.60945,374.76053 490.875,376.90625 C 480.48947,380.77907 470.53847,374.29523 460.375,373.59375 C 446.98443,377.41749 431.55609,377.72651 419.46875,369.96875 C 412.94263,364.90705 405.12168,369.42741 397.875,369.6875 C 389.56242,371.56851 381.77131,365.65457 373.625,368.34375 C 362.14175,374.79366 347.21773,375.91178 335.625,368.96875 C 329.27643,365.83406 324.90186,356.39963 316.625,359.15625 C 306.21512,367.96333 293.48698,374.89976 279.46875,375.28125 C 271.15907,376.37831 263.42858,372.98374 255.6875,371.15625 C 247.1876,371.9284 239.62227,378.3332 230.65625,377.5 C 225.90636,376.09196 221.11787,377.21066 216.9375,379.78125 C 206.72731,385.2432 195.3198,380.75454 184.6875,379.8125 C 178.53973,381.12121 172.07998,378.08365 166.125,380.3125 C 156.91745,390.70958 142.25792,396.04665 128.4375,393.40625 C 107.65589,390.78277 93.733387,367.21752 100.25,347.5625 C 106.16723,336.57493 104.44621,323.76204 104.46875,311.65625 C 100.94489,301.49451 97.06612,290.21626 100.1875,279.3125 C 103.18278,272.62682 105.22843,265.51749 103.96875,258.0625 C 100.45261,236.01604 116.92506,214.39219 138.1875,209.59375 C 146.88604,206.62418 155.60569,210.52123 164.34375,210.25 C 166.29826,209.70367 164.75981,207.96942 167.34375,207.8125 z"
       id="path2443"
       inkscape:export-filename="E:\Documents and Settings\Zain\My Documents\My Documents\School\2009_1 Spring\EE360P Concurrent and Distributed Systems\Programs\HiveWars\Logo02.png"
       inkscape:export-xdpi="90"
       inkscape:export-ydpi="90" />
    <use
       x="0"
       y="0"
       xlink:href="#path3875"
       id="use3191"
       transform="translate(-1302.8571,-11.428571)"
       width="744.09448"
       height="1052.3622" />
    <use
       x="0"
       y="0"
       xlink:href="#path3215"
       id="use3193"
       transform="translate(-1302.8571,-11.428571)"
       width="744.09448"
       height="1052.3622" />
    <use
       x="0"
       y="0"
       xlink:href="#text2437"
       id="use3197"
       transform="translate(-1302.8571,-11.428571)"
       width="744.09448"
       height="1052.3622" />
    <use
       x="0"
       y="0"
       xlink:href="#path4318"
       id="use3199"
       transform="translate(-1302.8571,-11.428571)"
       width="744.09448"
       height="1052.3622" />
  </g>
  <g
     inkscape:groupmode="layer"
     id="layer2"
     inkscape:label="Text"
     style="display:inline">
    <g
       id="g3387"
       style="fill:#2b1100;filter:url(#filter3772)"
       transform="translate(-34.427616,0)"
       inkscape:export-filename="E:\Documents and Settings\Zain\My Documents\My Documents\School\2009_1 Spring\EE360P Concurrent and Distributed Systems\Programs\HiveWars\Logo02.png"
       inkscape:export-xdpi="90"
       inkscape:export-ydpi="90">
      <path
         style="font-size:12px;font-style:normal;font-weight:normal;writing-mode:lr-tb;fill:#2b1100;fill-opacity:1;stroke:none;stroke-width:1px;stroke-linecap:butt;stroke-linejoin:miter;stroke-opacity:1;font-family:Bitstream Vera Sans"
         d="M 213.75,241.53125 C 206.62553,243.88927 208.37801,253.29023 206.5625,259 C 204.29017,268.26288 204.71602,277.92993 203.8125,287.40625 C 197.87398,286.17107 191.58134,286.31258 185.875,284.53125 C 186.8758,275.21117 186.8636,265.24492 192.46875,257.28125 C 195.55617,249.52575 188.02904,240.28213 179.75,242.59375 C 171.651,243.34811 170.96796,253.5402 172.6875,259.71875 C 172.07082,266.6971 172.26233,273.89418 172.6875,280.96875 C 172.98766,284.82224 167.70805,284.64357 167.3125,288.40625 C 165.67948,292.96158 168.98552,297.04113 171.71875,300 C 174.81622,313.42598 172.1005,327.2932 172.28125,340.875 C 172.82282,346.15927 173.30054,353.88748 180.0625,354.65625 C 184.89866,355.27634 185.73637,349.06835 183.5625,346.0625 C 181.18208,334.48817 185.59932,322.77657 184.75943,311.06254 C 185.3303,307.77474 183.64153,302.60793 185.375,300.5625 C 190.95069,300.06244 196.60521,300.29985 202.0625,301.3125 C 202.02585,311.22948 199.65768,321.70357 203.5625,331.03125 C 203.15311,333.37467 199.33715,335.8256 201.90625,338.59375 C 203.95753,340.54149 207.01987,341.29245 207.5625,344.5 C 209.48116,349.14233 216.25918,353.51083 220,348.15625 C 224.40758,341.55476 216.97343,335.39874 216.9375,328.78125 C 215.04389,316.42303 215.98353,303.74467 215.83789,291.34762 C 216.88765,277.56114 215.80682,263.54447 219.65625,250.1875 C 220.59561,245.88731 219.125,240.85778 213.75,241.53125 z M 455.3125,250.40625 C 450.94176,251.06485 449.95032,255.72621 450.4375,259.375 C 446.0016,263.03799 445.81269,270.64471 440.46875,273.625 C 437.77458,278.41758 438.09635,284.48835 438.5,289.53125 C 431.32432,295.0269 435.81052,305.64651 430.875,312.09375 C 428.1255,304.53062 423.14465,297.40967 423.625,288.9375 C 419.89148,285.98933 417.48507,278.44571 411.46875,281.03125 C 404.14153,286.73732 405.05488,297.66068 400.5625,305.3125 C 399.20783,309.58115 397.32726,313.56782 395.4375,317.59375 C 394.52436,307.00604 393.36555,296.20886 392.6875,285.75 C 392.53821,280.01015 394.13618,272.77358 388.125,269.15625 C 381.25921,265.02607 371.96511,274.25853 377,280.9375 C 381.2939,295.54424 382.90564,311.161 383.875,326.46875 C 383.87221,332.42512 381.49869,341.52845 388.875,344.15625 C 395.41738,345.49638 397.33552,337.34617 401.09375,333.6875 C 405.74378,327.27169 407.70685,318.07015 410.78125,311.875 C 413.95928,322.06218 418.87581,332.36805 427,339.5625 C 433.97347,342.69235 441.29998,338.01408 444.75,332 C 448.55526,325.58764 451.11244,318.24043 453.125,311.03125 C 455.6891,295.013 459.28918,279.13124 464.53125,263.78125 C 465.31127,260.24985 464.58526,253.62776 460.34375,254.15625 C 458.87896,252.69907 457.83908,250.09707 455.3125,250.40625 z M 233.375,261.125 C 229.19011,263.21696 226.51715,267.89999 223.6875,271.53125 C 220.03391,281.11263 233.88698,292.51368 241.78125,284.6875 C 245.03812,281.97777 245.20839,277.60027 243.6875,273.9375 C 248.63149,269.89319 243.0223,262.23118 237.5,264.03125 C 236.68919,262.48789 235.33956,260.78464 233.375,261.125 z M 250.9375,286.84375 C 246.94876,287.42532 244.50727,292.08933 244.59375,295.0625 C 240.32745,292.20254 234.98462,287.39948 229.59375,290.375 C 222.91149,294.21892 227.21122,302.61481 226.1875,308.5 C 226.05101,312.62269 226.89468,317.19414 230.15625,320 C 230.64124,330.8084 230.49425,342.91993 236.40625,352.15625 C 242.02324,356.09094 246.80461,347.43795 243.75,342.875 C 241.81892,331.74769 241.08377,319.95803 242.34375,308.75 C 242.07374,305.56157 245.41983,302.99997 246.21875,300.4375 C 249.46149,304.66763 251.67677,309.60042 252.33098,314.83116 C 255.43224,324.33991 259.4568,333.71156 261.8125,343.34375 C 264.07295,348.72348 272.52603,349.95667 274.96875,344.0625 C 277.34101,338.49265 275.36589,332.17819 278.46699,326.7995 C 280.99673,318.51532 283.91686,310.07013 289.84375,303.8125 C 292.5192,299.06418 286.39815,291.79951 281.8125,296.09375 C 277.90092,300.43087 274.17911,305.11698 271.8125,310.5 C 272.18308,305.36507 274.42636,298.19542 268.8125,294.9375 C 264.00242,290.13706 258.09952,285.69998 250.9375,286.84375 z M 565.15625,289.46875 C 559.27972,291.08527 551.50332,291.32197 547.46875,295.8125 C 545.65528,290.3624 536.64717,292.46666 536.875,298.0625 C 537.60366,300.20376 533.42048,298.80898 532.15625,300.09375 C 529.87728,300.07296 526.42712,304.83322 525.9375,301.125 C 521.58474,290.97359 504.19696,297.91293 507.09375,308.15625 C 513.88478,318.62592 507.33454,331.68536 510.6875,343.0625 C 512.14357,349.93086 521.40772,349.87081 524.75,344.59375 C 528.23441,339.59197 526.86671,333.03003 527.78125,327.28125 C 528.09705,322.96948 528.99186,318.81167 530.625,314.96875 C 533.72394,312.02785 536.98122,309.48736 541.34375,309.625 C 542.73835,310.15377 541.97853,314.35487 543.5,315.96875 C 546.63329,323.37041 555.73342,322.39298 561.21875,326.90625 C 564.73914,327.93493 568.93106,331.83139 564.0625,333.96875 C 560.59437,335.67135 555.79672,334.79447 552.90625,332.46875 C 554.02253,329.54284 554.09747,324.79304 550.03125,324.0625 C 542.21396,323.23095 539.02149,335.00395 544,339.96875 C 548.48644,345.03875 555.66603,345.72 561.90625,346.71875 C 572.02477,346.93937 581.4033,337.40197 578.90625,327.0625 C 578.41327,319.36605 570.22469,317.06717 565.35397,312.66372 C 563.35764,311.33604 559.81145,309.51049 563.75,308.9375 C 567.40677,308.26483 571.5499,310.68736 574.84375,307.625 C 580.79764,303.91696 579.69298,294.63683 573.34375,292.03125 C 570.99567,290.32443 568.09401,289.18461 565.15625,289.46875 z M 479.28125,290.28125 C 469.8561,290.96678 459.28638,297.42215 457.84375,307.28125 C 458.92848,315.41476 469.69286,315.10868 475.40801,312.43806 C 478.05036,310.79184 484.04191,310.81631 484.25,313.96875 C 479.0043,317.177 471.86922,316.33127 467.75,321.625 C 461.10462,328.68102 462.87337,342.56904 472.9375,345.40625 C 479.56388,347.56975 486.26222,344.28148 491.90625,341.3125 C 495.5123,342.95355 501.19475,346.60552 504.03125,341.71875 C 506.76403,337.66359 503.41369,332.79802 503.15625,328.84375 C 506.46743,326.12802 503.77012,321.90601 501.09375,320.03125 C 499.92352,310.57816 499.1522,298.52027 489.96875,293.3125 C 486.70872,291.79248 482.99501,290.00211 479.28125,290.28125 z M 305.5625,294.125 C 293.63709,295.5263 284.66864,308.58084 287.34375,320.3125 C 289.18919,330.18724 295.59725,338.71125 304.71199,343.08989 C 312.74963,348.86248 325.55528,344.88916 330.40625,337.125 C 330.85689,332.36595 324.72108,325.97258 320.65625,330.9375 C 319.03838,336.19956 311.93886,333.64311 309.29428,330.54732 C 308.16372,329.4429 304.24106,326.53116 305.53125,325.59375 C 313.13372,325.58456 320.17735,321.9402 327.53125,320.8125 C 333.63464,319.51053 338.89897,312.38166 334.875,306.5625 C 329.8455,298.91513 320.21159,295.61828 311.65625,294.21875 C 309.60239,294.196 307.60888,294.21566 305.5625,294.125 z M 486.125,326.96875 C 484.58677,329.07793 480.66529,331.25482 478.9375,331.0625 C 480.05706,327.77599 484.27871,328.25351 486.125,326.96875 z M 171.6875,354.90625 C 167.29671,355.2853 164.31083,362.02504 169.21875,364.28125 C 173.59434,367.80988 180.48952,362.01439 176.625,357.4375 C 175.44681,355.92622 173.62845,354.77774 171.6875,354.90625 z"
         id="path3381" />
      <text
         xml:space="preserve"
         style="font-size:12px;font-style:normal;font-weight:normal;writing-mode:lr-tb;fill:#2b1100;fill-opacity:1;stroke:none;stroke-width:1px;stroke-linecap:butt;stroke-linejoin:miter;stroke-opacity:1;font-family:Bitstream Vera Sans"
         x="167.14285"
         y="344.50504"
         id="text3383"><tspan
           sodipodi:role="line"
           id="tspan3385"
           x="167.14285"
           y="344.50504"
           style="font-size:144px;font-style:normal;font-variant:normal;font-weight:normal;font-stretch:normal;text-align:start;line-height:125%;writing-mode:lr-tb;text-anchor:start;fill:#2b1100;font-family:Chiller;-inkscape-font-specification:Chiller">Hive Wars</tspan></text>
    </g>
    <path
       id="path4049"
       d="M 183.32238,243.53125 C 176.19791,245.88927 177.95039,255.29023 176.13488,261 C 173.86255,270.26288 174.2884,279.92993 173.38488,289.40625 C 167.44636,288.17107 161.15372,288.31258 155.44738,286.53125 C 156.44818,277.21117 156.43598,267.24492 162.04113,259.28125 C 165.12855,251.52575 157.60142,242.28213 149.32238,244.59375 C 141.22338,245.34811 140.54034,255.5402 142.25988,261.71875 C 141.6432,268.6971 141.83471,275.89418 142.25988,282.96875 C 142.56004,286.82224 137.28043,286.64357 136.88488,290.40625 C 135.25186,294.96158 138.5579,299.04113 141.29113,302 C 144.3886,315.42598 141.67288,329.2932 141.85363,342.875 C 142.3952,348.15927 142.87292,355.88748 149.63488,356.65625 C 154.47104,357.27634 155.30875,351.06835 153.13488,348.0625 C 150.75446,336.48817 155.1717,324.77657 154.33181,313.06254 C 154.90268,309.77474 153.21391,304.60793 154.94738,302.5625 C 160.52307,302.06244 166.17759,302.29985 171.63488,303.3125 C 171.59823,313.22948 169.23006,323.70357 173.13488,333.03125 C 172.72549,335.37467 168.90953,337.8256 171.47863,340.59375 C 173.52991,342.54149 176.59225,343.29245 177.13488,346.5 C 179.05354,351.14233 185.83156,355.51083 189.57238,350.15625 C 193.97996,343.55476 186.54581,337.39874 186.50988,330.78125 C 184.61627,318.42303 185.55591,305.74467 185.41027,293.34762 C 186.46003,279.56114 185.3792,265.54447 189.22863,252.1875 C 190.16799,247.88731 188.69738,242.85778 183.32238,243.53125 z M 424.88488,252.40625 C 420.51414,253.06485 419.5227,257.72621 420.00988,261.375 C 415.57398,265.03799 415.38507,272.64471 410.04113,275.625 C 407.34696,280.41758 407.66873,286.48835 408.07238,291.53125 C 400.8967,297.0269 405.3829,307.64651 400.44738,314.09375 C 397.69788,306.53062 392.71703,299.40967 393.19738,290.9375 C 389.46386,287.98933 387.05745,280.44571 381.04113,283.03125 C 373.71391,288.73732 374.62726,299.66068 370.13488,307.3125 C 368.78021,311.58115 366.89964,315.56782 365.00988,319.59375 C 364.09674,309.00604 362.93793,298.20886 362.25988,287.75 C 362.11059,282.01015 363.70856,274.77358 357.69738,271.15625 C 350.83159,267.02607 341.53749,276.25853 346.57238,282.9375 C 350.86628,297.54424 352.47802,313.161 353.44738,328.46875 C 353.44459,334.42512 351.07107,343.52845 358.44738,346.15625 C 364.98976,347.49638 366.9079,339.34617 370.66613,335.6875 C 375.31616,329.27169 377.27923,320.07015 380.35363,313.875 C 383.53166,324.06218 388.44819,334.36805 396.57238,341.5625 C 403.54585,344.69235 410.87236,340.01408 414.32238,334 C 418.12764,327.58764 420.68482,320.24043 422.69738,313.03125 C 425.26148,297.013 428.86156,281.13124 434.10363,265.78125 C 434.88365,262.24985 434.15764,255.62776 429.91613,256.15625 C 428.45134,254.69907 427.41146,252.09707 424.88488,252.40625 z M 202.94738,263.125 C 198.76249,265.21696 196.08953,269.89999 193.25988,273.53125 C 189.60629,283.11263 203.45936,294.51368 211.35363,286.6875 C 214.6105,283.97777 214.78077,279.60027 213.25988,275.9375 C 218.20387,271.89319 212.59468,264.23118 207.07238,266.03125 C 206.26157,264.48789 204.91194,262.78464 202.94738,263.125 z M 220.50988,288.84375 C 216.52114,289.42532 214.07965,294.08933 214.16613,297.0625 C 209.89983,294.20254 204.557,289.39948 199.16613,292.375 C 192.48387,296.21892 196.7836,304.61481 195.75988,310.5 C 195.62339,314.62269 196.46706,319.19414 199.72863,322 C 200.21362,332.8084 200.06663,344.91993 205.97863,354.15625 C 211.59562,358.09094 216.37699,349.43795 213.32238,344.875 C 211.3913,333.74769 210.65615,321.95803 211.91613,310.75 C 211.64612,307.56157 214.99221,304.99997 215.79113,302.4375 C 219.03387,306.66763 221.24915,311.60042 221.90336,316.83116 C 225.00462,326.33991 229.02918,335.71156 231.38488,345.34375 C 233.64533,350.72348 242.09841,351.95667 244.54113,346.0625 C 246.91339,340.49265 244.93827,334.17819 248.03937,328.7995 C 250.56911,320.51532 253.48924,312.07013 259.41613,305.8125 C 262.09158,301.06418 255.97053,293.79951 251.38488,298.09375 C 247.4733,302.43087 243.75149,307.11698 241.38488,312.5 C 241.75546,307.36507 243.99874,300.19542 238.38488,296.9375 C 233.5748,292.13706 227.6719,287.69998 220.50988,288.84375 z M 534.72863,291.46875 C 528.8521,293.08527 521.0757,293.32197 517.04113,297.8125 C 515.22766,292.3624 506.21955,294.46666 506.44738,300.0625 C 507.17604,302.20376 502.99286,300.80898 501.72863,302.09375 C 499.44966,302.07296 495.9995,306.83322 495.50988,303.125 C 491.15712,292.97359 473.76934,299.91293 476.66613,310.15625 C 483.45716,320.62592 476.90692,333.68536 480.25988,345.0625 C 481.71595,351.93086 490.9801,351.87081 494.32238,346.59375 C 497.80679,341.59197 496.43909,335.03003 497.35363,329.28125 C 497.66943,324.96948 498.56424,320.81167 500.19738,316.96875 C 503.29632,314.02785 506.5536,311.48736 510.91613,311.625 C 512.31073,312.15377 511.55091,316.35487 513.07238,317.96875 C 516.20567,325.37041 525.3058,324.39298 530.79113,328.90625 C 534.31152,329.93493 538.50344,333.83139 533.63488,335.96875 C 530.16675,337.67135 525.3691,336.79447 522.47863,334.46875 C 523.59491,331.54284 523.66985,326.79304 519.60363,326.0625 C 511.78634,325.23095 508.59387,337.00395 513.57238,341.96875 C 518.05882,347.03875 525.23841,347.72 531.47863,348.71875 C 541.59715,348.93937 550.97568,339.40197 548.47863,329.0625 C 547.98565,321.36605 539.79707,319.06717 534.92635,314.66372 C 532.93002,313.33604 529.38383,311.51049 533.32238,310.9375 C 536.97915,310.26483 541.12228,312.68736 544.41613,309.625 C 550.37002,305.91696 549.26536,296.63683 542.91613,294.03125 C 540.56805,292.32443 537.66639,291.18461 534.72863,291.46875 z M 448.85363,292.28125 C 439.42848,292.96678 428.85876,299.42215 427.41613,309.28125 C 428.50086,317.41476 439.26524,317.10868 444.98039,314.43806 C 447.62274,312.79184 453.61429,312.81631 453.82238,315.96875 C 448.57668,319.177 441.4416,318.33127 437.32238,323.625 C 430.677,330.68102 432.44575,344.56904 442.50988,347.40625 C 449.13626,349.56975 455.8346,346.28148 461.47863,343.3125 C 465.08468,344.95355 470.76713,348.60552 473.60363,343.71875 C 476.33641,339.66359 472.98607,334.79802 472.72863,330.84375 C 476.03981,328.12802 473.3425,323.90601 470.66613,322.03125 C 469.4959,312.57816 468.72458,300.52027 459.54113,295.3125 C 456.2811,293.79248 452.56739,292.00211 448.85363,292.28125 z M 275.13488,296.125 C 263.20947,297.5263 254.24102,310.58084 256.91613,322.3125 C 258.76157,332.18724 265.16963,340.71125 274.28437,345.08989 C 282.32201,350.86248 295.12766,346.88916 299.97863,339.125 C 300.42927,334.36595 294.29346,327.97258 290.22863,332.9375 C 288.61076,338.19956 281.51124,335.64311 278.86666,332.54732 C 277.7361,331.4429 273.81344,328.53116 275.10363,327.59375 C 282.7061,327.58456 289.74973,323.9402 297.10363,322.8125 C 303.20702,321.51053 308.47135,314.38166 304.44738,308.5625 C 299.41788,300.91513 289.78397,297.61828 281.22863,296.21875 C 279.17477,296.196 277.18126,296.21566 275.13488,296.125 z M 455.69738,328.96875 C 454.15915,331.07793 450.23767,333.25482 448.50988,333.0625 C 449.62944,329.77599 453.85109,330.25351 455.69738,328.96875 z M 141.25988,356.90625 C 136.86909,357.2853 133.88321,364.02504 138.79113,366.28125 C 143.16672,369.80988 150.0619,364.01439 146.19738,359.4375 C 145.01919,357.92622 143.20083,356.77774 141.25988,356.90625 z"
       style="font-size:12px;font-style:normal;font-weight:normal;writing-mode:lr-tb;fill:#060000;fill-opacity:1;stroke:none;stroke-width:1px;stroke-linecap:butt;stroke-linejoin:miter;stroke-opacity:1;font-family:Bitstream Vera Sans;filter:url(#filter4307)"
       inkscape:export-filename="E:\Documents and Settings\Zain\My Documents\My Documents\School\2009_1 Spring\EE360P Concurrent and Distributed Systems\Programs\HiveWars\Logo02.png"
       inkscape:export-xdpi="90"
       inkscape:export-ydpi="90" />
    <path
       style="font-size:12px;font-style:normal;font-weight:normal;writing-mode:lr-tb;fill:#ff0000;fill-opacity:1;stroke:none;stroke-width:1px;stroke-linecap:butt;stroke-linejoin:miter;stroke-opacity:1;font-family:Bitstream Vera Sans"
       d="M 179.32238,241.53125 C 172.19791,243.88927 173.95039,253.29023 172.13488,259 C 169.86255,268.26288 170.2884,277.92993 169.38488,287.40625 C 163.44636,286.17107 157.15372,286.31258 151.44738,284.53125 C 152.44818,275.21117 152.43598,265.24492 158.04113,257.28125 C 161.12855,249.52575 153.60142,240.28213 145.32238,242.59375 C 137.22338,243.34811 136.54034,253.5402 138.25988,259.71875 C 137.6432,266.6971 137.83471,273.89418 138.25988,280.96875 C 138.56004,284.82224 133.28043,284.64357 132.88488,288.40625 C 131.25186,292.96158 134.5579,297.04113 137.29113,300 C 140.3886,313.42598 137.67288,327.2932 137.85363,340.875 C 138.3952,346.15927 138.87292,353.88748 145.63488,354.65625 C 150.47104,355.27634 151.30875,349.06835 149.13488,346.0625 C 146.75446,334.48817 151.1717,322.77657 150.33181,311.06254 C 150.90268,307.77474 149.21391,302.60793 150.94738,300.5625 C 156.52307,300.06244 162.17759,300.29985 167.63488,301.3125 C 167.59823,311.22948 165.23006,321.70357 169.13488,331.03125 C 168.72549,333.37467 164.90953,335.8256 167.47863,338.59375 C 169.52991,340.54149 172.59225,341.29245 173.13488,344.5 C 175.05354,349.14233 181.83156,353.51083 185.57238,348.15625 C 189.97996,341.55476 182.54581,335.39874 182.50988,328.78125 C 180.61627,316.42303 181.55591,303.74467 181.41027,291.34762 C 182.46003,277.56114 181.3792,263.54447 185.22863,250.1875 C 186.16799,245.88731 184.69738,240.85778 179.32238,241.53125 z M 420.88488,250.40625 C 416.51414,251.06485 415.5227,255.72621 416.00988,259.375 C 411.57398,263.03799 411.38507,270.64471 406.04113,273.625 C 403.34696,278.41758 403.66873,284.48835 404.07238,289.53125 C 396.8967,295.0269 401.3829,305.64651 396.44738,312.09375 C 393.69788,304.53062 388.71703,297.40967 389.19738,288.9375 C 385.46386,285.98933 383.05745,278.44571 377.04113,281.03125 C 369.71391,286.73732 370.62726,297.66068 366.13488,305.3125 C 364.78021,309.58115 362.89964,313.56782 361.00988,317.59375 C 360.09674,307.00604 358.93793,296.20886 358.25988,285.75 C 358.11059,280.01015 359.70856,272.77358 353.69738,269.15625 C 346.83159,265.02607 337.53749,274.25853 342.57238,280.9375 C 346.86628,295.54424 348.47802,311.161 349.44738,326.46875 C 349.44459,332.42512 347.07107,341.52845 354.44738,344.15625 C 360.98976,345.49638 362.9079,337.34617 366.66613,333.6875 C 371.31616,327.27169 373.27923,318.07015 376.35363,311.875 C 379.53166,322.06218 384.44819,332.36805 392.57238,339.5625 C 399.54585,342.69235 406.87236,338.01408 410.32238,332 C 414.12764,325.58764 416.68482,318.24043 418.69738,311.03125 C 421.26148,295.013 424.86156,279.13124 430.10363,263.78125 C 430.88365,260.24985 430.15764,253.62776 425.91613,254.15625 C 424.45134,252.69907 423.41146,250.09707 420.88488,250.40625 z M 198.94738,261.125 C 194.76249,263.21696 192.08953,267.89999 189.25988,271.53125 C 185.60629,281.11263 199.45936,292.51368 207.35363,284.6875 C 210.6105,281.97777 210.78077,277.60027 209.25988,273.9375 C 214.20387,269.89319 208.59468,262.23118 203.07238,264.03125 C 202.26157,262.48789 200.91194,260.78464 198.94738,261.125 z M 216.50988,286.84375 C 212.52114,287.42532 210.07965,292.08933 210.16613,295.0625 C 205.89983,292.20254 200.557,287.39948 195.16613,290.375 C 188.48387,294.21892 192.7836,302.61481 191.75988,308.5 C 191.62339,312.62269 192.46706,317.19414 195.72863,320 C 196.21362,330.8084 196.06663,342.91993 201.97863,352.15625 C 207.59562,356.09094 212.37699,347.43795 209.32238,342.875 C 207.3913,331.74769 206.65615,319.95803 207.91613,308.75 C 207.64612,305.56157 210.99221,302.99997 211.79113,300.4375 C 215.03387,304.66763 217.24915,309.60042 217.90336,314.83116 C 221.00462,324.33991 225.02918,333.71156 227.38488,343.34375 C 229.64533,348.72348 238.09841,349.95667 240.54113,344.0625 C 242.91339,338.49265 240.93827,332.17819 244.03937,326.7995 C 246.56911,318.51532 249.48924,310.07013 255.41613,303.8125 C 258.09158,299.06418 251.97053,291.79951 247.38488,296.09375 C 243.4733,300.43087 239.75149,305.11698 237.38488,310.5 C 237.75546,305.36507 239.99874,298.19542 234.38488,294.9375 C 229.5748,290.13706 223.6719,285.69998 216.50988,286.84375 z M 530.72863,289.46875 C 524.8521,291.08527 517.0757,291.32197 513.04113,295.8125 C 511.22766,290.3624 502.21955,292.46666 502.44738,298.0625 C 503.17604,300.20376 498.99286,298.80898 497.72863,300.09375 C 495.44966,300.07296 491.9995,304.83322 491.50988,301.125 C 487.15712,290.97359 469.76934,297.91293 472.66613,308.15625 C 479.45716,318.62592 472.90692,331.68536 476.25988,343.0625 C 477.71595,349.93086 486.9801,349.87081 490.32238,344.59375 C 493.80679,339.59197 492.43909,333.03003 493.35363,327.28125 C 493.66943,322.96948 494.56424,318.81167 496.19738,314.96875 C 499.29632,312.02785 502.5536,309.48736 506.91613,309.625 C 508.31073,310.15377 507.55091,314.35487 509.07238,315.96875 C 512.20567,323.37041 521.3058,322.39298 526.79113,326.90625 C 530.31152,327.93493 534.50344,331.83139 529.63488,333.96875 C 526.16675,335.67135 521.3691,334.79447 518.47863,332.46875 C 519.59491,329.54284 519.66985,324.79304 515.60363,324.0625 C 507.78634,323.23095 504.59387,335.00395 509.57238,339.96875 C 514.05882,345.03875 521.23841,345.72 527.47863,346.71875 C 537.59715,346.93937 546.97568,337.40197 544.47863,327.0625 C 543.98565,319.36605 535.79707,317.06717 530.92635,312.66372 C 528.93002,311.33604 525.38383,309.51049 529.32238,308.9375 C 532.97915,308.26483 537.12228,310.68736 540.41613,307.625 C 546.37002,303.91696 545.26536,294.63683 538.91613,292.03125 C 536.56805,290.32443 533.66639,289.18461 530.72863,289.46875 z M 444.85363,290.28125 C 435.42848,290.96678 424.85876,297.42215 423.41613,307.28125 C 424.50086,315.41476 435.26524,315.10868 440.98039,312.43806 C 443.62274,310.79184 449.61429,310.81631 449.82238,313.96875 C 444.57668,317.177 437.4416,316.33127 433.32238,321.625 C 426.677,328.68102 428.44575,342.56904 438.50988,345.40625 C 445.13626,347.56975 451.8346,344.28148 457.47863,341.3125 C 461.08468,342.95355 466.76713,346.60552 469.60363,341.71875 C 472.33641,337.66359 468.98607,332.79802 468.72863,328.84375 C 472.03981,326.12802 469.3425,321.90601 466.66613,320.03125 C 465.4959,310.57816 464.72458,298.52027 455.54113,293.3125 C 452.2811,291.79248 448.56739,290.00211 444.85363,290.28125 z M 271.13488,294.125 C 259.20947,295.5263 250.24102,308.58084 252.91613,320.3125 C 254.76157,330.18724 261.16963,338.71125 270.28437,343.08989 C 278.32201,348.86248 291.12766,344.88916 295.97863,337.125 C 296.42927,332.36595 290.29346,325.97258 286.22863,330.9375 C 284.61076,336.19956 277.51124,333.64311 274.86666,330.54732 C 273.7361,329.4429 269.81344,326.53116 271.10363,325.59375 C 278.7061,325.58456 285.74973,321.9402 293.10363,320.8125 C 299.20702,319.51053 304.47135,312.38166 300.44738,306.5625 C 295.41788,298.91513 285.78397,295.61828 277.22863,294.21875 C 275.17477,294.196 273.18126,294.21566 271.13488,294.125 z M 451.69738,326.96875 C 450.15915,329.07793 446.23767,331.25482 444.50988,331.0625 C 445.62944,327.77599 449.85109,328.25351 451.69738,326.96875 z M 137.25988,354.90625 C 132.86909,355.2853 129.88321,362.02504 134.79113,364.28125 C 139.16672,367.80988 146.0619,362.01439 142.19738,357.4375 C 141.01919,355.92622 139.20083,354.77774 137.25988,354.90625 z"
       id="text2428"
       inkscape:export-filename="E:\Documents and Settings\Zain\My Documents\My Documents\School\2009_1 Spring\EE360P Concurrent and Distributed Systems\Programs\HiveWars\Logo02.png"
       inkscape:export-xdpi="90"
       inkscape:export-ydpi="90" />
    <text
       xml:space="preserve"
       style="font-size:12px;font-style:normal;font-weight:normal;writing-mode:lr-tb;fill:#28170b;fill-opacity:1;stroke:none;stroke-width:1px;stroke-linecap:butt;stroke-linejoin:miter;stroke-opacity:1;font-family:Bitstream Vera Sans"
       x="131.18468"
       y="344.50504"
       id="text2418"
       inkscape:export-filename="E:\Documents and Settings\Zain\My Documents\My Documents\School\2009_1 Spring\EE360P Concurrent and Distributed Systems\Programs\HiveWars\Logo02.png"
       inkscape:export-xdpi="90"
       inkscape:export-ydpi="90"><tspan
         sodipodi:role="line"
         id="tspan2420"
         x="131.18468"
         y="344.50504"
         style="font-size:144px;font-style:normal;font-variant:normal;font-weight:normal;font-stretch:normal;text-align:start;line-height:125%;writing-mode:lr-tb;text-anchor:start;fill:#28170b;font-family:Chiller;-inkscape-font-specification:Chiller">Hive Wars</tspan></text>
    <use
       x="0"
       y="0"
       xlink:href="#g3387"
       id="use3201"
       transform="translate(-1302.8571,-11.428571)"
       width="744.09448"
       height="1052.3622" />
    <use
       x="0"
       y="0"
       xlink:href="#path4049"
       id="use3203"
       transform="translate(-1302.8571,-11.428571)"
       width="744.09448"
       height="1052.3622" />
    <use
       x="0"
       y="0"
       xlink:href="#text2428"
       id="use3205"
       transform="translate(-1302.8571,-11.428571)"
       width="744.09448"
       height="1052.3622" />
    <use
       x="0"
       y="0"
       xlink:href="#text2418"
       id="use3207"
       transform="translate(-1302.8571,-11.428571)"
       width="744.09448"
       height="1052.3622" />
  </g>
</svg>
